<?xml version="1.0" encoding="UTF-8"?>
<svg width="465px" height="432px" viewBox="0 0 465 432" version="1.1" xmlns="http://www.w3.org/2000/svg" xmlns:xlink="http://www.w3.org/1999/xlink">
    <title>Destiny Logo</title>
    <defs>
        <polygon id="path-1" points="0.06 0.701103391 0.06 431.94 464.362 431.94 464.362 0.701103391 0.06 0.701103391"></polygon>
    </defs>
    <g id="Page-1" stroke="none" stroke-width="1" fill="none" fill-rule="evenodd">
        <g id="destiny_logo_tricorn_vector_by_valencygraphics-d5yqbim">
            <g id="Group-3">
                <mask id="mask-2" fill="white">
                    <use xlink:href="#path-1"></use>
                </mask>
                <g id="Clip-2"></g>
                <path d="M158.315,37.114 C158.724,70.802 158.315,103.227 158.315,139.934 C158.315,150.834 157.77,161.761 158.315,171.954 C160.956,221.296 207.415,257.375 257.527,239.148 C281.797,230.322 301.635,209.193 305.33,180.072 C307.656,161.754 305.781,133.926 305.781,109.269 L305.781,55.603 C305.781,50.471 305.263,41.408 305.781,38.017 C305.781,38.017 319.198,30.65 322.017,28.997 C338.338,19.426 351.448,8.82 371.172,3.292 C403.555,-5.784 429.224,10.731 443.777,25.84 C459.822,42.496 470.495,71.428 460.463,101.153 C452.011,126.197 431.56,137.639 411.309,151.66 C372.146,178.773 342.071,215.269 323.369,263.5 C314.394,286.648 309.164,317.164 306.233,345.125 C304.506,361.602 303.65,375.294 298.566,387.517 C289.374,409.614 270.621,427.756 242.646,431.26 C195.175,437.205 166.277,406.592 160.119,365.869 C157.792,350.48 157.198,335.224 155.158,320.773 C145.089,249.411 111.359,197.46 64.965,161.13 C37.057,139.277 -1.132,124.68 0.026,76.348 C0.388,61.243 5.253,47.88 11.3,38.017 C23.259,18.505 44.058,1.252 75.337,1.037 C112.328,0.783 130.311,23.427 158.315,37.114" id="Fill-1" fill="#FFFFFF" mask="url(#mask-2)"></path>
            </g>
            <path d="M230.019,38.918 C254.417,37.359 275.301,54.867 280.076,76.8 C282.799,89.301 280.979,113.183 280.979,126.406 C280.979,142.178 282.28,161.876 280.527,176.463 C278.575,192.706 269.644,204.639 259.783,211.189 C229.719,231.154 186.91,213.35 183.119,174.66 C181.361,156.715 183.119,139.326 183.119,121.445 C183.119,104.052 181.431,83.312 185.823,70.936 C191.578,54.735 207.508,40.357 230.019,38.918" id="Fill-4" fill="#FFFFFF"></path>
        </g>
    </g>
</svg>